<svg width="78" height="78" viewBox="0 0 78 78" fill="none" xmlns="http://www.w3.org/2000/svg">
<path d="M78 39C78 17.461 60.539 0 39 0C17.461 0 0 17.4607 0 39C0 58.4659 14.2618 74.6006 32.9062 77.5262V50.2734H23.0039V39H32.9062V30.4078C32.9062 20.6334 38.7288 15.2344 47.637 15.2344C51.9041 15.2344 56.3672 15.9961 56.3672 15.9961V25.5938H51.4495C46.6044 25.5938 45.0938 28.6001 45.0938 31.6845V39H55.9102L54.1811 50.2734H45.0938V77.5262C63.7382 74.6006 78 58.4662 78 39Z" fill="#1877F2"/>
<path d="M54.1811 50.2734L55.9102 39H45.0938V31.6845C45.0938 28.5998 46.6047 25.5938 51.4495 25.5938H56.3672V15.9961C56.3672 15.9961 51.9041 15.2344 47.637 15.2344C38.7288 15.2344 32.9062 20.6334 32.9062 30.4078V39H23.0039V50.2734H32.9062V77.5262C34.9221 77.8421 36.9595 78.0005 39 78C41.0405 78.0006 43.0779 77.8422 45.0938 77.5262V50.2734H54.1811Z" fill="white"/>
</svg>
