<svg width="43" height="26" viewBox="0 0 43 26" fill="none" xmlns="http://www.w3.org/2000/svg">
<path d="M0 0H42.4211V26H0V0Z" fill="#186648"/>
<path d="M0 0H14.3684V26H0V0Z" fill="white"/>
<path d="M30.7894 18.4737C29.2896 18.4746 27.8182 18.0644 26.5352 17.2877C25.2521 16.511 24.2065 15.3975 23.512 14.0682C22.8175 12.7389 22.5006 11.2446 22.5958 9.74784C22.691 8.25105 23.1946 6.80898 24.052 5.57837C23.0653 6.26344 22.241 7.15673 21.6374 8.19519C21.0337 9.23364 20.6654 10.392 20.5583 11.5883C20.4512 12.7847 20.6081 13.99 21.0178 15.1192C21.4275 16.2483 22.0801 17.2737 22.9294 18.1231C23.7788 18.9725 24.8042 19.625 25.9334 20.0347C27.0625 20.4444 28.2678 20.6013 29.4642 20.4942C30.6606 20.3872 31.8189 20.0188 32.8574 19.4152C33.8958 18.8115 34.7891 17.9872 35.4742 17.0006C34.1007 17.9606 32.4651 18.4749 30.7894 18.4737ZM33.152 8.56632L34.0736 7.29779L32.5827 7.78221L31.6604 6.51369V8.0819L30.1695 8.56632L31.6604 9.05074V10.6189L32.5827 9.35042L34.0736 9.83484L33.152 8.56632Z" fill="white" stroke="white" stroke-linecap="round" stroke-linejoin="round"/>
</svg>
