<svg width="46" height="34" viewBox="0 0 46 34" fill="none" xmlns="http://www.w3.org/2000/svg">
<path d="M10.5576 34V16.4892L5.16553 11.521L0.330322 8.76404V30.9098C0.330322 32.6196 1.70581 34 3.39858 34H10.5576Z" fill="#4285F4"/>
<path d="M35.103 34.0001H42.2621C43.9599 34.0001 45.3303 32.6146 45.3303 30.9099V8.76428L39.8537 11.9221L35.103 16.4893V34.0001Z" fill="#34A853"/>
<path d="M10.5577 16.4894L9.82397 9.64743L10.5577 3.099L22.8304 12.3694L35.103 3.099L35.9238 9.29389L35.103 16.4894L22.8304 25.7598L10.5577 16.4894Z" fill="#EA4335"/>
<path d="M35.103 3.09881V16.4892L45.3303 8.764V4.64381C45.3303 0.822461 40.9991 -1.35598 37.9669 0.935764L35.103 3.09881Z" fill="#FBBC04"/>
<path d="M0.330322 8.76408L5.03405 12.3172L10.5576 16.4893V3.09889L7.69379 0.935845C4.65629 -1.35608 0.330322 0.822541 0.330322 4.64371V8.7639V8.76408Z" fill="#C5221F"/>
</svg>
