<svg width="45" height="45" viewBox="0 0 45 45" fill="none" xmlns="http://www.w3.org/2000/svg">
<path d="M28.1526 9.5415V18.3438L31.265 20.2804C31.3774 20.3049 31.4938 20.3049 31.6061 20.2804L44.9882 11.3544C44.9784 10.9212 44.8182 10.5045 44.5345 10.1743C44.2509 9.84422 43.861 9.62075 43.4304 9.5415H28.1526Z" fill="#0072C6"/>
<path d="M28.1531 21.6274L30.991 23.5559C31.1238 23.636 31.2764 23.6783 31.432 23.6783C31.5876 23.6783 31.7401 23.636 31.873 23.5559C31.3857 23.8468 44.9871 14.9127 44.9871 14.9127V31.0902C45.0225 31.418 44.9852 31.7495 44.8776 32.0616C44.77 32.3736 44.5948 32.6586 44.3643 32.8967C44.1338 33.1347 43.8534 33.32 43.5429 33.4397C43.2324 33.5593 42.8992 33.6104 42.5667 33.5893H28.1515L28.1531 21.6274ZM13.4617 17.5693C12.9902 17.5671 12.5268 17.6911 12.1207 17.9282C11.7147 18.1653 11.381 18.5066 11.155 18.9161C10.5379 20.0015 10.2418 21.2368 10.3006 22.4808C10.2364 23.7222 10.5329 24.9558 11.155 26.0358C11.38 26.4284 11.7055 26.7555 12.0988 26.9842C12.492 27.2129 12.9392 27.3353 13.3954 27.3388C13.8515 27.3424 14.3006 27.2272 14.6975 27.0046C15.0944 26.7821 15.4251 26.4601 15.6563 26.0711C16.2716 24.9961 16.562 23.7689 16.4929 22.5354C16.5634 21.2632 16.2826 19.9959 15.6807 18.8695C15.4656 18.4734 15.1452 18.1429 14.7542 17.9138C14.3631 17.6847 13.9162 17.5655 13.4617 17.5693Z" fill="#0072C6"/>
<path d="M0 5.07054V39.5068L26.4782 45V0L0 5.07054ZM17.7193 28.1105C17.224 28.8014 16.5654 29.3619 15.8009 29.7431C15.0364 30.1244 14.1893 30.3148 13.3333 30.2979C12.4989 30.3125 11.6733 30.1276 10.9267 29.7588C10.18 29.39 9.53443 28.8483 9.04484 28.1796C7.88367 26.5757 7.3028 24.6314 7.39604 22.6607C7.29726 20.5934 7.88863 18.5512 9.07895 16.8493C9.58052 16.1452 10.2495 15.5741 11.0268 15.1862C11.8041 14.7983 12.666 14.6056 13.5364 14.625C14.3647 14.6086 15.1845 14.7935 15.9237 15.1637C16.663 15.5339 17.299 16.0779 17.7762 16.748C18.9257 18.3867 19.4967 20.3549 19.4006 22.3473C19.5019 24.3997 18.9104 26.4272 17.7193 28.1105Z" fill="#0072C6"/>
</svg>
