<svg width="20" height="20" viewBox="0 0 20 20" fill="none" xmlns="http://www.w3.org/2000/svg">
<path d="M19.9974 15.1226C19.9204 15.4825 19.8742 15.8502 19.756 16.197C19.0421 18.3302 17.5809 19.6211 15.3929 19.9393C13.5028 20.2157 11.9029 19.5403 10.6343 18.0851C10.5932 18.0355 10.5496 17.9886 10.5008 17.9312C9.79712 18.4085 9.09861 18.8779 8.40267 19.3499C8.25115 19.4516 8.0945 19.5481 7.95069 19.6602C7.84797 19.7385 7.77607 19.7254 7.67591 19.6576C6.49974 18.8544 5.30303 18.0825 4.14484 17.2532C1.90293 15.6468 0.559836 13.4536 0.120699 10.7023C0.0410889 10.2095 0.0102722 9.70353 0.00770416 9.20283C-0.00513611 7.51035 0.00513611 5.81787 0 4.128C0 3.98196 0.0410889 3.90894 0.17206 3.84375C2.66564 2.58156 5.15922 1.31676 7.65023 0.0467503C7.76323 -0.0106219 7.85311 -0.0184453 7.97124 0.0415347C10.4622 1.31155 12.9558 2.57895 15.452 3.84114C15.5804 3.90633 15.6266 3.97935 15.6266 4.12539C15.6215 5.77093 15.624 7.41647 15.624 9.06201C15.624 9.13503 15.624 9.20544 15.624 9.27846C15.886 9.35148 16.1402 9.40363 16.3816 9.49491C18.4335 10.272 19.6302 11.7585 19.9615 13.9595C19.9692 14.0038 19.9872 14.0456 20 14.0899V15.12L19.9974 15.1226ZM13.7417 9.26281C13.7417 9.26281 13.7494 9.22891 13.7494 9.20544C13.7494 7.88327 13.7519 6.5611 13.7442 5.23893C13.7442 5.17374 13.6646 5.07986 13.6004 5.04595C11.7206 4.08367 9.83821 3.1292 7.95326 2.17734C7.88136 2.14084 7.76066 2.13562 7.69132 2.17213C5.80123 3.12399 3.91371 4.08627 2.02363 5.04074C1.91577 5.0955 1.87468 5.15548 1.87468 5.28066C1.87981 6.61587 1.86697 7.95107 1.88238 9.28628C1.89522 10.4911 2.17001 11.6385 2.69902 12.7208C2.7247 12.7756 2.75809 12.8251 2.81715 12.9268C2.81715 12.606 2.81715 12.3505 2.81715 12.0923C2.81972 11.4038 3.24602 10.8093 3.89317 10.6006C4.12686 10.525 4.36826 10.4702 4.60709 10.4076C5.15152 10.2668 5.69851 10.1286 6.2378 9.99039C6.26862 9.70179 6.17874 9.47752 5.96816 9.31758C5.90139 9.26542 5.83719 9.20805 5.76528 9.16371C5.65999 9.09852 5.62404 9.01507 5.62661 8.88728C5.63431 8.39701 5.62917 7.90935 5.62917 7.41908C5.62917 7.17655 5.62917 6.93402 5.62917 6.67063H5.02311C5.02311 6.4255 4.98973 6.19601 5.02825 5.97956C5.17976 5.14244 5.66769 4.60262 6.4792 4.37053C7.18285 4.16972 7.88649 4.14365 8.59527 4.33663C8.74422 4.37574 8.8906 4.44355 9.03955 4.44876C9.61479 4.46962 9.99743 4.85819 10 5.44756C10 6.49069 9.98459 7.53643 10.0103 8.57956C10.018 8.93422 9.93066 9.16893 9.62763 9.35408C9.33744 9.53142 9.31946 9.64877 9.40678 9.99822C9.97175 10.1443 10.5393 10.2851 11.1043 10.4363C11.2301 10.4702 11.3174 10.4363 11.4227 10.3685C11.8182 10.1182 12.2111 9.85479 12.6297 9.65398C12.9789 9.48708 13.3641 9.39842 13.7442 9.27063L13.7417 9.26281ZM14.6995 9.84696C12.1135 9.84175 10.0051 11.9776 10 14.601C9.99743 17.2141 12.0981 19.3551 14.6739 19.3655C17.247 19.376 19.3708 17.2271 19.3734 14.6062C19.376 11.9932 17.2727 9.84957 14.6995 9.84696ZM5.00257 12.7078V12.9425C5.00257 13.7222 5.0077 14.5019 4.99743 15.2817C4.99743 15.4668 5.04366 15.5816 5.20031 15.6833C6.03749 16.2414 6.86697 16.8073 7.69646 17.3758C7.78891 17.4383 7.85311 17.4305 7.94042 17.3705C8.43606 17.0315 8.93169 16.6899 9.43503 16.3639C9.57884 16.27 9.61222 16.1892 9.56857 16.0171C9.12173 14.2568 9.46071 12.6608 10.5547 11.2265C10.6086 11.1561 10.6677 11.0883 10.7447 10.997C10.2722 10.8771 9.82794 10.7649 9.37083 10.6476C9.24242 11.3908 8.8264 11.8472 8.11762 12.048V13.3232H7.49872V12.0401C6.78223 11.8393 6.38418 11.3673 6.25321 10.6476C5.55213 10.8249 4.8716 10.9944 4.19363 11.1717C3.70313 11.2995 3.44119 11.6516 3.44119 12.1653C3.44119 12.7077 3.44119 13.2502 3.44119 13.79C3.44119 13.8474 3.43349 13.923 3.46687 13.9595C3.74679 14.3011 4.03698 14.6349 4.32203 14.9713C4.34258 14.9609 4.36312 14.9505 4.38367 14.94V12.6999H5.00257V12.7078ZM14.9949 9.21326C14.9974 9.16111 15.0026 9.12199 15.0026 9.08287C15.0026 7.54947 15.0026 6.01607 15.0077 4.48266C15.0077 4.34706 14.9435 4.30272 14.8459 4.25317C12.5578 3.09269 10.2696 1.9296 7.98151 0.766511C7.87879 0.714354 7.79661 0.696099 7.67848 0.756079C5.37494 1.92439 3.07653 3.09008 0.775552 4.25317C0.657422 4.31316 0.624037 4.38096 0.624037 4.51135C0.629173 6.02389 0.618901 7.53904 0.631741 9.05158C0.636877 9.5575 0.667694 10.0712 0.742167 10.5719C1.10426 12.9685 2.21366 14.9505 4.11145 16.4213C5.26708 17.3158 6.51515 18.0903 7.7247 18.9118C7.77093 18.9431 7.88392 18.9274 7.94042 18.8909C8.63123 18.4319 9.3169 17.9651 10.0051 17.4983C10.0514 17.467 10.0924 17.4279 10.1387 17.3888C10.0411 17.2036 9.95121 17.0315 9.85619 16.8516C9.79199 16.8907 9.74319 16.922 9.6944 16.9533C9.11402 17.3445 8.53364 17.733 7.96097 18.132C7.85054 18.2103 7.77863 18.2024 7.67078 18.132C6.78736 17.527 5.88855 16.9403 5.01284 16.3248C2.65537 14.6662 1.37904 12.3766 1.26862 9.46101C1.21212 7.93543 1.25835 6.40724 1.25578 4.88166C1.25578 4.75909 1.2943 4.69911 1.40216 4.64435C3.49512 3.58557 5.58295 2.52158 7.67848 1.46802C7.75552 1.4289 7.88392 1.4289 7.96097 1.46802C10.0539 2.52419 12.1418 3.58818 14.2322 4.64435C14.3528 4.70433 14.3837 4.77474 14.3811 4.89992C14.376 6.2612 14.3785 7.62249 14.3785 8.98377V9.21587H14.9974L14.9949 9.21326ZM6.25321 6.67585C6.25321 7.34867 6.25064 7.98758 6.25835 8.6265C6.25835 8.68909 6.31228 8.76993 6.3662 8.81166C6.63585 9.02811 6.91063 9.23934 7.19312 9.44014C7.26245 9.48969 7.35491 9.51316 7.43965 9.5262C8.05342 9.62269 8.58757 9.46361 9.02671 9.00464C9.09861 8.92901 9.20133 8.88468 9.27067 8.81166C9.32203 8.75689 9.37339 8.67344 9.37596 8.60303C9.38367 8.21446 9.46071 7.79721 9.35285 7.44255C9.25013 7.10875 8.9471 6.84014 8.73138 6.54285C8.71597 6.52198 8.698 6.50112 8.68516 6.47765C8.62095 6.35248 8.53878 6.34204 8.41294 6.39942C7.98151 6.595 7.5244 6.68367 7.04931 6.67324C6.78993 6.66802 6.53313 6.67324 6.25321 6.67324V6.67585ZM5.65999 6.03432C6.21726 6.03432 6.75141 6.05518 7.283 6.0265C7.55778 6.01085 7.8377 5.94044 8.09194 5.83613C8.32563 5.73964 8.55418 5.71356 8.79301 5.72921C8.85978 5.73442 8.93939 5.77615 8.98305 5.8283C9.11145 5.97956 9.22445 6.14385 9.37596 6.34465C9.37596 5.9926 9.38367 5.6953 9.37339 5.40062C9.36826 5.2285 9.26297 5.11115 9.09348 5.0955C8.84181 5.07464 8.60555 5.04074 8.35644 4.9599C7.70159 4.74605 7.03133 4.8269 6.39445 5.09811C5.9964 5.26762 5.75501 5.57795 5.65999 6.03432ZM6.87982 10.0999C6.87982 10.2147 6.86954 10.3737 6.87982 10.5302C6.93118 11.2448 7.67334 11.6568 8.27684 11.3047C8.66718 11.0779 8.84694 10.5772 8.73395 10.1025C8.11505 10.2042 7.50899 10.2042 6.87725 10.0999H6.87982Z" fill="white"/>
<path d="M19.9974 6.03959H16.2634V5.40588H19.9974V6.03959Z" fill="white"/>
<path d="M16.2634 6.68103H18.7339V7.29909H16.2634V6.68103Z" fill="white"/>
<path d="M16.2583 8.56128V7.95105H17.4833V8.56128H16.2583Z" fill="white"/>
<path d="M13.5182 17.9416C12.5732 16.9819 11.6256 16.0196 10.6908 15.0704C11.2763 14.4758 11.8618 13.8812 12.455 13.2788C12.7992 13.6335 13.1561 14.0012 13.5002 14.3558C14.5352 13.3049 15.5573 12.267 16.5614 11.2473C17.1777 11.8732 17.7632 12.4678 18.3359 13.0493C16.7514 14.6584 15.1361 16.3013 13.5208 17.9416H13.5182ZM13.5285 17.0393C14.8433 15.7041 16.1607 14.3663 17.4653 13.0415C17.1854 12.7572 16.8978 12.4652 16.5922 12.1548C15.5804 13.1849 14.5557 14.2255 13.5105 15.2868C13.151 14.9191 12.7889 14.5514 12.4525 14.2072C12.1623 14.4993 11.8747 14.7887 11.5922 15.073C12.2316 15.7223 12.8865 16.3847 13.5285 17.0393Z" fill="white"/>
</svg>
