<svg width="46" height="45" viewBox="0 0 46 45" fill="none" xmlns="http://www.w3.org/2000/svg">
<path d="M1.29043 22.3045C1.28937 26.0979 2.285 29.8019 4.17816 33.0667L1.10938 44.2214L12.5759 41.2282C15.7474 42.947 19.3009 43.8477 22.9119 43.8479H22.9214C34.842 43.8479 44.5456 34.191 44.5507 22.3215C44.553 16.5699 42.3051 11.1614 38.221 7.09237C34.1376 3.02369 28.7069 0.7818 22.9205 0.779175C10.9985 0.779175 1.29553 10.4355 1.29061 22.3045" fill="url(#paint0_linear_11_118)"/>
<path d="M0.518408 22.2974C0.517178 26.2274 1.54849 30.0638 3.50915 33.4455L0.330322 45L12.208 41.8996C15.4807 43.676 19.1655 44.6126 22.9149 44.614H22.9245C35.2728 44.614 45.3251 34.6097 45.3303 22.3153C45.3324 16.357 43.0037 10.7541 38.7737 6.53929C34.5432 2.32501 28.9182 0.00244996 22.9245 0C10.5741 0 0.52333 10.0028 0.518408 22.2974ZM7.59185 32.8631L7.14835 32.1622C5.28401 29.2111 4.29999 25.8007 4.3014 22.2988C4.30544 12.0799 12.6593 3.76594 22.9316 3.76594C27.9062 3.76804 32.5813 5.69861 36.0976 9.20135C39.6137 12.7044 41.5486 17.3611 41.5473 22.3139C41.5428 32.5329 33.1888 40.8478 22.9245 40.8478H22.9172C19.575 40.8461 16.2972 39.9526 13.4387 38.264L12.7584 37.8624L5.70993 39.7021L7.59185 32.8629V32.8631Z" fill="url(#paint1_linear_11_118)"/>
<path d="M17.3245 12.9756C16.9051 12.0476 16.4637 12.0289 16.0649 12.0126C15.7383 11.9986 15.3649 11.9997 14.9919 11.9997C14.6185 11.9997 14.0119 12.1395 13.4992 12.6968C12.9859 13.2547 11.5396 14.6029 11.5396 17.3449C11.5396 20.0871 13.5457 22.7371 13.8254 23.1093C14.1054 23.4809 17.6984 29.288 23.3888 31.522C28.118 33.3785 29.0804 33.0093 30.1068 32.9162C31.1334 32.8234 33.4192 31.5684 33.8856 30.2669C34.3523 28.9656 34.3523 27.8502 34.2123 27.6171C34.0724 27.3849 33.6991 27.2454 33.1392 26.9668C32.5792 26.688 29.8268 25.3397 29.3137 25.1537C28.8004 24.9678 28.4272 24.8751 28.0538 25.4331C27.6805 25.9903 26.6084 27.2454 26.2816 27.6171C25.9552 27.9897 25.6284 28.036 25.0687 27.7573C24.5085 27.4776 22.7055 26.8898 20.5664 24.9913C18.9021 23.5139 17.7786 21.6896 17.452 21.1315C17.1254 20.5743 17.417 20.2723 17.6977 19.9946C17.9492 19.7449 18.2577 19.3438 18.5379 19.0184C18.8171 18.6929 18.9102 18.4607 19.0969 18.089C19.2838 17.717 19.1903 17.3915 19.0505 17.1127C18.9102 16.8339 17.8223 14.0776 17.3245 12.9756Z" fill="white"/>
<defs>
<linearGradient id="paint0_linear_11_118" x1="2173.18" y1="4345" x2="2173.18" y2="0.779175" gradientUnits="userSpaceOnUse">
<stop stop-color="#1FAF38"/>
<stop offset="1" stop-color="#60D669"/>
</linearGradient>
<linearGradient id="paint1_linear_11_118" x1="2250.33" y1="4500" x2="2250.33" y2="0" gradientUnits="userSpaceOnUse">
<stop stop-color="#F9F9F9"/>
<stop offset="1" stop-color="white"/>
</linearGradient>
</defs>
</svg>
