<svg width="46" height="45" viewBox="0 0 46 45" fill="none" xmlns="http://www.w3.org/2000/svg">
<path d="M34.7834 0H10.8772C5.05232 0 0.330322 4.722 0.330322 10.5469V34.4531C0.330322 40.278 5.05232 45 10.8772 45H34.7834C40.6083 45 45.3303 40.278 45.3303 34.4531V10.5469C45.3303 4.722 40.6083 0 34.7834 0Z" fill="url(#paint0_radial_11_122)"/>
<path d="M34.7834 0H10.8772C5.05232 0 0.330322 4.722 0.330322 10.5469V34.4531C0.330322 40.278 5.05232 45 10.8772 45H34.7834C40.6083 45 45.3303 40.278 45.3303 34.4531V10.5469C45.3303 4.722 40.6083 0 34.7834 0Z" fill="url(#paint1_radial_11_122)"/>
<path d="M22.8319 4.92188C18.058 4.92188 17.4588 4.94279 15.5839 5.02805C13.7125 5.11383 12.4351 5.41002 11.3175 5.84473C10.1612 6.29367 9.18056 6.89432 8.20356 7.87166C7.22569 8.84883 6.62505 9.82951 6.1747 10.9853C5.73876 12.1032 5.44222 13.3812 5.35802 15.2517C5.27417 17.1267 5.2522 17.7261 5.2522 22.5002C5.2522 27.2742 5.27329 27.8715 5.35837 29.7464C5.4445 31.6178 5.74069 32.8952 6.17505 34.0128C6.62435 35.1691 7.22499 36.1498 8.20233 37.1268C9.17915 38.1046 10.1598 38.7067 11.3152 39.1556C12.4337 39.5903 13.7113 39.8865 15.5823 39.9723C17.4574 40.0576 18.0561 40.0785 22.8298 40.0785C27.6042 40.0785 28.2015 40.0576 30.0764 39.9723C31.9477 39.8865 33.2266 39.5903 34.345 39.1556C35.5008 38.7067 36.4801 38.1046 37.4567 37.1268C38.4346 36.1498 39.0351 35.1691 39.4856 34.0133C39.9177 32.8952 40.2144 31.6174 40.3023 29.7468C40.3865 27.8719 40.4084 27.2742 40.4084 22.5002C40.4084 17.7261 40.3865 17.1271 40.3023 15.252C40.2144 13.3806 39.9177 12.1034 39.4856 10.9858C39.0351 9.82951 38.4346 8.84883 37.4567 7.87166C36.479 6.89396 35.5012 6.29332 34.344 5.8449C33.2234 5.41002 31.9453 5.11365 30.0739 5.02805C28.1989 4.94279 27.6019 4.92188 22.8265 4.92188H22.8319ZM21.255 8.08963C21.7231 8.08893 22.2453 8.08963 22.8319 8.08963C27.5254 8.08963 28.0816 8.1065 29.935 8.1907C31.6489 8.2691 32.5792 8.55545 33.1988 8.79609C34.0191 9.11461 34.604 9.49553 35.2189 10.1109C35.8341 10.7262 36.2148 11.3121 36.5342 12.1324C36.7749 12.7512 37.0616 13.6814 37.1396 15.3953C37.2238 17.2484 37.2421 17.8049 37.2421 22.4961C37.2421 27.1874 37.2238 27.7441 37.1396 29.597C37.0612 31.3109 36.7749 32.2411 36.5342 32.86C36.2157 33.6804 35.8341 34.2645 35.2189 34.8794C34.6036 35.4946 34.0195 35.8754 33.1988 36.1941C32.5799 36.4358 31.6489 36.7214 29.935 36.7998C28.082 36.884 27.5254 36.9023 22.8319 36.9023C18.1382 36.9023 17.5818 36.884 15.7289 36.7998C14.0151 36.7207 13.0848 36.4344 12.4647 36.1937C11.6445 35.875 11.0584 35.4943 10.4432 34.879C9.82796 34.2638 9.44722 33.6793 9.12782 32.8586C8.88718 32.2397 8.60048 31.3095 8.52243 29.5956C8.43823 27.7425 8.42136 27.186 8.42136 22.4917C8.42136 17.7977 8.43823 17.244 8.52243 15.3909C8.60083 13.677 8.88718 12.7468 9.12782 12.1271C9.44651 11.3068 9.82796 10.7209 10.4434 10.1057C11.0586 9.49043 11.6445 9.10951 12.4649 8.79029C13.0845 8.54859 14.0151 8.26295 15.7289 8.1842C17.3505 8.1109 17.9789 8.08893 21.255 8.08523V8.08963ZM32.2151 11.0083C31.0506 11.0083 30.1057 11.9522 30.1057 13.117C30.1057 14.2815 31.0506 15.2263 32.2151 15.2263C33.3797 15.2263 34.3245 14.2815 34.3245 13.117C34.3245 11.9524 33.3797 11.0076 32.2151 11.0076V11.0083ZM22.8319 13.4729C17.8467 13.4729 13.8048 17.5148 13.8048 22.5002C13.8048 27.4855 17.8467 31.5255 22.8319 31.5255C27.8172 31.5255 31.8577 27.4855 31.8577 22.5002C31.8577 17.515 27.8169 13.4729 22.8316 13.4729H22.8319ZM22.8319 16.6407C26.0679 16.6407 28.6914 19.2639 28.6914 22.5002C28.6914 25.7361 26.0679 28.3597 22.8319 28.3597C19.5958 28.3597 16.9726 25.7361 16.9726 22.5002C16.9726 19.2639 19.5958 16.6407 22.8319 16.6407Z" fill="white"/>
<defs>
<radialGradient id="paint0_radial_11_122" cx="0" cy="0" r="1" gradientUnits="userSpaceOnUse" gradientTransform="translate(12.2834 48.4659) rotate(-90) scale(44.5983 41.48)">
<stop stop-color="#FFDD55"/>
<stop offset="0.1" stop-color="#FFDD55"/>
<stop offset="0.5" stop-color="#FF543E"/>
<stop offset="1" stop-color="#C837AB"/>
</radialGradient>
<radialGradient id="paint1_radial_11_122" cx="0" cy="0" r="1" gradientUnits="userSpaceOnUse" gradientTransform="translate(-7.20735 3.24158) rotate(78.681) scale(19.9357 82.1756)">
<stop stop-color="#3771C8"/>
<stop offset="0.128" stop-color="#3771C8"/>
<stop offset="1" stop-color="#6600FF" stop-opacity="0"/>
</radialGradient>
</defs>
</svg>
